<svg width="74" height="84" viewBox="0 0 74 84" fill="none" xmlns="http://www.w3.org/2000/svg">
<path d="M64.4992 16.4847C64.4502 16.0436 64.0581 15.8476 63.7641 15.8476C63.47 15.8476 57.0495 15.3575 57.0495 15.3575C57.0495 15.3575 52.5894 10.8974 52.0503 10.4563C51.5602 9.9662 50.629 10.1132 50.2369 10.2113C50.1879 10.2113 49.2566 10.5053 47.7373 10.9954C46.2179 6.63341 43.6203 2.66347 38.9642 2.66347H38.5231C37.2488 0.997076 35.5824 0.212891 34.2101 0.212891C23.4275 0.212891 18.2323 13.6911 16.6149 20.5527C12.3999 21.876 9.41022 22.7582 9.06714 22.9053C6.71459 23.6404 6.66558 23.6894 6.37151 25.895C6.12645 27.5614 0 74.9556 0 74.9556L47.6883 83.8757L73.5664 78.2884C73.6154 78.1903 64.5483 16.9258 64.4992 16.4847ZM45.0907 11.6816C43.9144 12.0247 42.493 12.4658 41.0717 12.9559V12.0737C41.0717 9.42707 40.7286 7.27056 40.0915 5.55515C42.5421 5.84922 44.0614 8.54486 45.0907 11.6816ZM37.1018 6.09428C37.7389 7.76068 38.18 10.1132 38.18 13.348V13.8381C35.5334 14.6713 32.7397 15.5045 29.8481 16.4357C31.4654 10.2603 34.5532 7.22155 37.1018 6.09428ZM33.965 3.05556C34.4551 3.05556 34.9453 3.25161 35.3373 3.54568C31.8575 5.16306 28.1817 9.23103 26.6623 17.465C24.3588 18.2001 22.1532 18.8373 20.0457 19.5235C21.8102 13.25 26.2212 3.05556 33.965 3.05556Z" fill="white"/>
</svg>
