<svg width="289" height="203" viewBox="0 0 289 203" fill="none" xmlns="http://www.w3.org/2000/svg">
<path fill-rule="evenodd" clip-rule="evenodd" d="M120.037 22.6264C129.363 12.9173 142.344 6.90481 156.685 6.90481C175.806 6.90481 192.377 17.5275 201.3 33.3554C209.221 29.8145 217.8 27.9865 226.476 27.9909C260.894 27.9909 288.832 56.1411 288.832 90.8773C288.832 125.614 260.894 153.764 226.476 153.764C222.27 153.764 218.169 153.341 214.154 152.542C206.346 166.458 191.421 175.912 174.425 175.912C167.505 175.926 160.674 174.356 154.454 171.323C146.54 189.913 128.11 202.979 106.652 202.979C84.2382 202.979 65.2235 188.851 57.8938 168.986C54.6316 169.675 51.3063 170.021 47.9722 170.019C21.3092 170.019 -0.254883 148.136 -0.254883 121.26C-0.254883 103.202 9.45427 87.4802 23.8587 78.982C20.8028 71.9424 19.2298 64.3487 19.2378 56.6743C19.2378 25.656 44.4136 0.586426 75.4319 0.586426C93.5968 0.586426 109.85 9.24393 120.047 22.6817" fill="black"/>
</svg>
