<svg width="215" height="70" viewBox="0 0 215 70" fill="none" xmlns="http://www.w3.org/2000/svg">
<path d="M18.7578 31.8522C16.1602 30.4799 14.8368 29.2546 14.8368 27.6372C14.8368 25.5787 16.6993 24.2554 19.591 24.2554C22.9728 24.2554 25.9625 25.6277 25.9625 25.6277L28.315 18.423C28.315 18.423 26.1585 16.7566 19.787 16.7566C10.9159 16.7566 4.74046 21.8538 4.74046 29.0095C4.74046 33.0775 7.63214 36.1652 11.455 38.3707C14.5918 40.0861 15.67 41.3604 15.67 43.2229C15.67 45.1343 14.1017 46.7027 11.21 46.7027C6.94598 46.7027 2.87801 44.4972 2.87801 44.4972L0.378418 51.7019C0.378418 51.7019 4.1033 54.2015 10.3768 54.2015C19.493 54.2015 26.1095 49.6924 26.1095 41.6055C26.0115 37.1944 22.7277 34.1557 18.7578 31.8522ZM55.1244 16.6586C50.6153 16.6586 47.0865 18.8151 44.3908 22.0499L44.2928 22.0008L48.2137 1.61201H38.0684L28.168 53.5643H38.3134L41.6952 35.8221C43.0185 29.1075 46.4983 24.9415 49.7331 24.9415C52.0367 24.9415 52.9189 26.5099 52.9189 28.7154C52.9189 30.0878 52.8208 31.8522 52.4778 33.2245L48.6549 53.5643H58.8003L62.7702 32.5874C63.2113 30.3818 63.5054 27.7352 63.5054 25.9218C63.4564 20.0894 60.4667 16.6586 55.1244 16.6586ZM86.4428 16.6586C74.1899 16.6586 66.103 27.6862 66.103 39.9881C66.103 47.83 70.9551 54.2015 80.0713 54.2015C92.0791 54.2015 100.166 43.4679 100.166 30.8719C100.215 23.5692 96.0001 16.6586 86.4428 16.6586ZM81.4436 46.4576C77.9638 46.4576 76.5425 43.5169 76.5425 39.7921C76.5425 33.9597 79.5322 24.5004 85.0705 24.5004C88.6483 24.5004 89.8736 27.6372 89.8736 30.6269C89.8736 36.8514 86.7859 46.4576 81.4436 46.4576ZM126.191 16.6586C119.33 16.6586 115.458 22.736 115.458 22.736H115.36L115.948 17.2957H106.93C106.489 20.9716 105.655 26.6079 104.871 30.7739L97.8625 67.9737H108.008L110.851 52.9272H111.096C111.096 52.9272 113.203 54.2505 117.026 54.2505C128.985 54.2505 136.778 41.9976 136.778 29.6467C136.729 22.785 133.641 16.6586 126.191 16.6586ZM116.487 46.5557C113.84 46.5557 112.272 45.0363 112.272 45.0363L113.938 35.5771C115.115 29.2056 118.447 25.0396 121.976 25.0396C125.113 25.0396 126.044 27.9312 126.044 30.6269C126.093 37.1944 122.172 46.5557 116.487 46.5557ZM151.236 2.10212C148.001 2.10212 145.404 4.69974 145.404 7.98352C145.404 10.9732 147.315 13.0807 150.207 13.0807H150.305C153.491 13.0807 156.186 10.9242 156.235 7.19933C156.284 4.20962 154.275 2.10212 151.236 2.10212ZM137.023 53.5153H147.168L154.03 17.4428H143.835L137.023 53.5153ZM179.908 17.3937H172.85L173.193 15.7274C173.781 12.2475 175.84 9.20881 179.271 9.20881C181.084 9.20881 182.506 9.74794 182.506 9.74794L184.466 1.75904C184.466 1.75904 182.751 0.876831 178.928 0.876831C175.35 0.876831 171.723 1.90608 168.978 4.25863C165.499 7.19933 163.881 11.4633 163.097 15.7764L162.803 17.4428H158.049L156.529 25.1376H161.284L155.892 53.5643H166.038L171.429 25.1376H178.438L179.908 17.3937ZM204.365 17.4428C204.365 17.4428 197.993 33.4696 195.2 42.2426H195.102C194.906 39.4 192.602 17.4428 192.602 17.4428H181.917L188.044 50.4766C188.142 51.2118 188.093 51.6529 187.799 52.143C186.623 54.4465 184.613 56.6521 182.26 58.2695C180.349 59.6418 178.193 60.573 176.477 61.1611L179.32 69.7872C181.378 69.3461 185.691 67.6307 189.269 64.2489C193.876 59.9358 198.189 53.2212 202.6 44.1051L215 17.3937H204.365V17.4428Z" fill="white"/>
</svg>
