<svg width="93" height="94" viewBox="0 0 93 94" fill="none" xmlns="http://www.w3.org/2000/svg">
<path d="M46.853 74.8763C31.5193 74.8763 24.5357 67.1336 24.5357 61.3645C24.5357 58.48 26.813 56.3545 29.8493 56.3545C36.3775 56.3545 34.7075 66.2227 47.0048 66.2227C53.2293 66.2227 56.873 62.4273 56.873 58.9354C56.873 56.81 55.6584 54.3809 51.5593 53.47L37.8957 49.9782C26.9648 47.2454 24.9911 41.0209 24.9911 35.4036C24.9911 23.7136 35.7702 19.4627 45.942 19.4627C55.3548 19.4627 66.5893 24.6245 66.5893 31.76C66.5893 34.7963 64.0084 36.4663 61.1239 36.4663C55.5066 36.4663 56.4175 28.5718 45.183 28.5718C39.5657 28.5718 36.6811 31.1527 36.6811 34.7963C36.6811 38.44 41.0839 39.6545 44.8793 40.5654L54.8993 42.8427C65.982 45.2718 68.8666 51.8 68.8666 58.0245C68.8666 67.4372 61.4275 74.8763 46.853 74.8763ZM89.2102 54.5327C89.6657 52.1036 89.8175 49.5227 89.8175 46.9418C89.8175 22.9545 70.5366 3.52179 46.7011 3.52179C44.1202 3.52179 41.6911 3.67361 39.2621 4.12906C35.4666 2.00361 31.2157 0.789062 26.5093 0.789062C12.3902 0.789062 0.852051 12.3272 0.852051 26.5982C0.852051 31.3045 2.0666 35.5554 4.19205 39.3509C3.7366 41.78 3.58478 44.3609 3.58478 46.9418C3.58478 70.9291 22.8657 90.3618 46.7011 90.3618C49.282 90.3618 51.7111 90.21 54.1402 89.7545C57.9357 91.88 62.1866 93.0945 66.893 93.0945C81.012 93.0945 92.5502 81.5563 92.5502 67.2854C92.5502 62.7309 91.3357 58.3282 89.2102 54.5327Z" fill="black"/>
</svg>
